Patient4_TMGait_0pt4_01_left_17_EMG.mot
version=1
nRows=26
nColumns=33
inDegrees=no
endheader
time	1LAddLong	2LGlutMax	3LGlutMed	4LIliopsoas	5LSemiMemb	6LBicFemLong	7LRecFem	8LVastMed	9LVastLat	10LGasMed	11LTibAnt	12lTibPost	13LPeroneusLong	14LSol	15LExtDigLong	16LFlexDigLong	17RAddLong	18RGlutMax	19RGlutMed	20RIliopsoas	21RSemiMemb	22RBicFemLong	23RRecFem	24RVastMed	25RVastLat	26RGasMed	27RTibAnt	28RTibPost	29RPeroneusLong	30RSol	31RExtDigLong	32RFlexDigLong
21.498	-0.00946	-0.046387	0.035248	0.003662	0.032806	0.079193	-0.00946	0.016327	0.008698	0.088348	0.022888	-0.002747	0.018921	0.010834	-0.007019	-0.006714	-0.010376	0.05188	0.11154	0.008545	0.18768	-0.082855	-0.019226	-0.009308	0	0.016174	0.098419	0.013885	0.12573	-0.062408	-0.001068	-0.015564
21.499	0.001526	-0.004578	0.00946	0.003204	0.045319	-0.04837	-0.06424	0.006104	0.025635	0.097961	0.013123	0.002747	0.013123	0.061493	-0.001526	-0.005798	-0.006104	0.11704	0.18723	0.005493	-0.061951	-0.070496	-0.030365	-0.028687	-0.011749	0.015106	0.34515	0.008392	0.074615	-0.045624	0.005188	-0.006409
21.5	0.014038	0.030212	-0.043182	-0.012665	0.061035	-0.20203	-0.1149	-0.013123	0.056305	0.090637	0.018311	-0.00061	0.001831	-0.00412	0.001831	-0.00885	0.013428	0.097504	0.14542	0.002441	-0.22614	0.090942	0.001373	-0.051117	-0.012207	0.001373	0.50461	-0.03891	0.13718	0.21606	-0.001831	-0.005798
21.501	0.019989	-0.000153	-0.0737	-0.013275	0.062561	-0.17868	-0.095978	-0.026855	0.040436	0.10254	0.011902	-0.005341	-0.024109	0.042725	0.00061	0.010681	0.020905	0.06546	0.20111	-0.043182	-0.20874	0.16541	0.011749	-0.078125	-0.006104	-0.009003	0.60913	-0.43335	0.12894	0.14221	-0.002747	0.000458
21.502	0.017853	-0.006104	0.007019	-0.013428	0.09613	-0.16937	-0.068665	-0.033569	0.003967	-0.036163	0.015411	-0.005646	-0.015564	0.047913	0.00351	0.004578	-0.003204	0.11261	0.46158	-0.050049	0.23895	0.16342	-0.038757	-0.000153	-0.00351	0.011902	0.19287	0.15671	0.073853	0.18539	0.002747	-0.012054
21.503	0.012207	-0.028534	0.088959	0.013275	0.043182	-0.12253	-0.11261	-0.019226	-0.05722	-0.10468	0.024567	-0.001678	-0.038147	0.040436	-0.003204	0.005798	-0.025024	0.11353	0.75729	-0.054016	0.298	0.25589	-0.012207	-0.01709	0.02243	0.010834	-0.72739	0.16144	0.054016	-0.040283	-0.000763	-0.013275
21.504	-0.004425	-0.054016	0.071716	0.010681	0.006714	0.032959	-0.11643	-0.007477	-0.046387	-0.079041	0.018768	-0.001984	-0.034943	0.012054	0.004272	-0.000305	0.009918	0.089264	0.62531	-0.036011	0.14648	0.20447	-0.025787	0.005035	-0.00885	0.00885	-0.24765	0.075073	-0.030365	-0.42572	-0.002747	-0.02594
21.505	-0.003052	-0.038605	0.07843	0.014191	-0.019073	0.10117	-0.12756	-0.00061	-0.002289	0.017853	0.022125	0.003967	-0.076141	-0.00885	0.005188	-0.013428	-0.011749	0.062561	0.24414	-0.021667	-0.1001	0.0914	-0.050659	0.046082	0.023956	-0.039368	-0.56458	0.053558	0.1413	-0.61081	-0.001526	-0.017853
21.506	-0.003967	0.015564	0.076904	-0.011139	-0.042114	0.15457	-0.11597	0.004425	0.031281	0.00351	0.013275	-0.006714	-0.00946	-0.011444	0.007477	-0.004425	0.007019	0.096588	0.12466	-0.027161	-0.29282	0.18707	-0.096741	0.020142	0.028229	-0.047913	-0.53238	0.024109	0.31204	-0.4425	-0.002441	-0.01358
21.507	0.003967	0.047455	0.079803	-0.002289	-0.049744	0.18478	-0.11948	-0.002441	0.028839	0.016022	0.010529	-0.008087	0.060883	-0.005493	0.000763	-0.010223	0.017395	0.058441	0.11459	0.041809	0.009918	0.13763	-0.10361	0.001678	0.019989	-0.016785	0.28885	-0.000916	0.29205	-0.33203	-0.001221	-0.001373
21.508	-0.004883	0.027618	0.057831	0.00885	-0.035248	0.20783	-0.11353	-0.002136	-0.017548	0.16312	0.008698	-0.008698	0.084381	-0.020142	0.009155	-0.004272	0.001068	0.13123	0.49881	0.014191	0.15045	0.048523	-0.12131	-0.001373	0.014038	-0.011139	0.55893	-0.007935	0.055847	-0.42236	0.005798	-0.00412
21.509	-0.007019	-0.002441	0.024872	0.008087	-0.015259	0.22125	-0.12604	0.003967	-0.057068	0.16769	0.020752	-0.014038	0.077209	0.008392	-0.001831	-0.003662	0.006866	0.077057	0.34775	-0.029755	-0.022583	0.11551	-0.11688	-0.023499	0.010529	-0.010986	-0.085144	-0.016632	-0.058746	-0.35507	0.000916	-0.002441
21.51	-0.017395	-0.02655	0.024109	0.018005	-0.016785	0.16098	-0.17151	0.006104	-0.011444	0.12528	0.012512	-0.009766	0.04364	0.003815	-0.009308	0.005341	0.001221	0.1918	0.23025	0.000305	-0.024109	0.16846	-0.095825	-0.062103	0.014801	-0.011597	-1.0535	-0.018311	0.054932	-0.15503	0.001526	0.010529
21.511	-0.025482	-0.060883	0.033417	-0.006866	-0.010071	0.077057	-0.14603	0.011597	0.010071	-0.036163	0.008698	0.00824	0.018768	0.033875	-0.00351	0.007477	0.020447	0.17746	0.11368	0.055084	-0.076141	0.13641	-0.097198	-0.091858	-0.004578	0.003815	-0.50354	-0.024261	0.016022	-0.10773	-0.003052	-0.006256
21.512	-0.03006	-0.048523	-0.001373	-0.000458	-0.018463	-0.15961	-0.11826	0.00885	0.015717	-0.18692	0.016327	0.014038	0.004425	0.007629	-0.012054	0.002441	0.046844	0.14053	0.066071	0.036316	-0.24918	0.16937	-0.064697	-0.042267	-0.00061	0.01236	-0.28137	-0.020142	0.074463	0.038452	0.007324	-0.003662
21.513	-0.013275	-0.044556	-0.036316	-0.016022	-0.076294	-0.38177	-0.042114	0.004425	-0.045013	-0.11398	0.014496	0.019836	0.022888	-0.020599	0.011444	-0.001068	0.036621	0.13825	0.26382	0.013275	-0.18967	0.23041	-0.095978	-0.01358	0.00061	-0.007477	-0.28717	-0.01358	0.021362	0.22888	-0.001678	-0.007172
21.514	-0.001984	-0.092316	-0.086517	0.007782	-0.12253	-0.48966	0.004883	-0.001678	-0.12512	-0.017242	0.005951	0.002594	0.031891	-0.020447	0.00473	0.00412	0.01709	0.14328	0.42816	-0.010223	0.12543	0.17075	-0.13123	0.091705	0.020905	-0.003815	-0.18356	-0.010376	-0.037689	0.29266	-0.000916	-0.013123
21.515	0.037537	-0.080719	-0.029907	0.007172	-0.02655	-0.48904	-0.057373	-0.013428	-0.15488	0.19684	0.006409	-0.007477	0.031738	-0.089722	0.011292	0.009613	-0.011902	0.06485	-0.025482	0.016327	0.39642	0.1471	-0.18601	0.10605	0.02182	0.00473	-0.079041	-0.00824	-0.11444	0.34134	0.000916	-0.005188
21.516	0.042419	-0.1239	0.050354	0.005798	0.17853	-0.13031	-0.080261	-0.012207	-0.12329	0.13062	0.006256	-0.00412	0.027008	-0.095673	0	0	-0.002899	0.039063	-0.354	0.039368	0.35782	0.15869	-0.11734	0.032196	0.015717	0.007935	-0.026855	-0.013733	-0.084686	0.22934	0.002136	0.001068
21.517	0.017548	-0.094147	0.12039	-0.014954	0.11261	0.091248	-0.07782	-0.012207	-0.084534	-0.059052	0.014496	-0.033417	0.015411	-0.02594	-0.012054	-0.009918	-0.011139	0.046844	-0.36682	0.037537	0.17334	0.11231	-0.16281	0.008698	0.007782	0.007782	-0.045624	-0.014801	-0.17929	0.15076	0.000153	-0.012817
21.518	0.002899	-0.045471	-0.00061	-0.004883	-0.045471	0.18906	-0.067444	-0.010071	-0.068359	-0.023499	0.008545	0.006866	0.020294	-0.022125	-0.012512	-0.001831	0.008087	0.088654	-0.09201	0.058289	-0.00412	-0.00351	-0.14801	0.011139	-0.00946	0.006866	0.014038	-0.016022	-0.39215	0.094452	0.000916	-0.013733
21.519	0.008545	-0.051422	-0.006561	-0.015106	-0.11093	0.12177	-0.073853	-0.00473	-0.040741	-0.013275	0.014801	-0.003052	0.002899	0.050659	-0.007782	0.003052	0.027771	0.062408	-0.14206	0.032349	-0.026093	0.013428	-0.18768	0.029144	0.007782	0.008087	0.11261	-0.014496	-0.29266	0.16632	0.001526	-0.018616
21.52	0.016022	-0.084229	-0.015717	-0.027771	0.002899	0.023041	-0.10803	-0.004272	0.04776	-0.032349	0.021057	0.007477	0.00946	-0.018311	0.00412	0.000458	0.049591	0.034943	-0.23621	0.019989	0.058594	0.049133	-0.1387	0.004578	0.007782	-0.002899	0.25986	-0.010529	-0.22385	0.084534	-0.001526	-0.020905
21.521	0.016479	-0.059662	0.014801	-0.022583	0.077362	0.096741	-0.09964	0.009308	0.15198	-0.030975	0.014038	-0.008545	0.003662	-0.041809	0.012054	-0.005341	0.089417	0.013428	-0.085602	0.015106	-0.083618	0.08255	-0.11719	0.020905	-0.020905	-0.00946	0.20386	-0.010223	-0.12924	-0.028992	-0.003357	-0.012817
21.522	0.015106	-0.11841	0.063019	0.003052	0.097809	0.073395	-0.17929	0.00824	0.24277	-0.054169	0.014648	0.005646	0.02594	0.02655	0.020752	0.009155	0.045471	-0.023193	0.19974	-0.039673	0.092163	0.02121	-0.15793	0.070038	-0.012054	-0.01236	-0.003204	-0.009308	0.20477	-0.016174	-0.001068	-0.010223
21.523	0.005188	-0.12894	0	0.02655	0.049133	0.023346	-0.1561	0.015106	0.27145	-0.029297	0.014496	-0.001984	0.033417	0.04776	0.011292	-0.000916	-0.008698	-0.056458	0.29541	-0.048218	0.12985	-0.059814	-0.16342	0.054626	0.01358	-0.017242	-0.052948	-0.010223	0.48691	0.039825	-0.000458	-0.010986
